<?xml version="1.0" standalone="no"?>
<!DOCTYPE svg PUBLIC "-//W3C//DTD SVG 20010904//EN"
 "http://www.w3.org/TR/2001/REC-SVG-20010904/DTD/svg10.dtd">
<svg version="1.0" xmlns="http://www.w3.org/2000/svg"
 width="708.000000pt" height="645.000000pt" viewBox="0 0 708.000000 645.000000"
 preserveAspectRatio="xMidYMid meet">
<metadata>
Created by potrace 1.10, written by Peter Selinger 2001-2011
</metadata>
<g transform="translate(0.000000,645.000000) scale(0.100000,-0.100000)"
fill="#000000" stroke="none">
<path d="M3455 5336 c-74 -22 -113 -45 -149 -88 -34 -39 -69 -101 -79 -138 -2
-10 -26 -18 -73 -25 l-69 -10 -3 -37 c-3 -35 -9 -41 -85 -88 -45 -28 -120 -76
-167 -105 -47 -30 -93 -55 -103 -55 -10 0 -30 -6 -45 -14 -15 -7 -78 -17 -140
-21 -119 -8 -132 -14 -132 -64 0 -34 -34 -42 -191 -48 -96 -4 -156 -11 -167
-19 -14 -10 -18 -32 -20 -121 -2 -59 -8 -113 -14 -120 -7 -9 -167 -11 -691 -9
-375 2 -687 2 -694 -1 -11 -4 -13 -178 -13 -909 l0 -903 -22 -21 c-21 -19 -22
-27 -20 -153 2 -72 5 -140 8 -149 5 -17 52 -18 797 -18 668 -1 796 -3 817 -15
37 -21 292 -21 310 0 17 20 181 21 213 1 29 -18 280 -17 299 2 7 7 38 12 74
12 40 0 66 5 73 14 8 10 11 102 11 324 -1 205 2 317 9 331 6 11 11 42 11 70 0
62 26 116 90 181 78 80 116 94 245 94 102 0 114 -2 157 -27 93 -55 168 -168
169 -257 7 -542 11 -706 21 -717 6 -8 34 -13 72 -13 39 0 69 -5 82 -15 27 -21
247 -21 288 0 39 21 203 20 230 0 29 -22 278 -22 296 0 11 13 114 15 815 15
723 0 803 2 809 16 3 9 6 76 6 150 0 122 -2 136 -20 151 -20 17 -20 30 -20
920 0 849 -1 903 -17 911 -10 5 -307 8 -685 6 -367 -2 -669 0 -672 5 -3 4 -10
59 -16 121 -6 63 -16 120 -22 127 -7 9 -42 13 -112 14 -55 1 -132 4 -171 8
l-70 6 -3 32 c-4 41 -24 52 -105 59 -113 10 -186 26 -247 54 -43 20 -109 58
-140 81 -19 14 -66 43 -105 64 -91 49 -95 53 -95 84 0 40 -10 48 -75 57 -54 8
-60 12 -69 39 -36 120 -119 195 -236 214 -78 13 -93 13 -145 -3z m213 -1054
c9 -7 12 -60 10 -233 l-3 -224 -143 0 c-79 0 -146 3 -149 8 -6 10 -4 438 3
448 7 11 265 11 282 1z m1942 -267 c3 -93 2 -174 -2 -179 -8 -10 -121 -17
-150 -9 -16 4 -18 21 -18 177 0 95 3 176 7 180 4 4 41 5 83 4 l75 -3 5 -170z
m-4090 153 c1 -7 3 -84 6 -171 4 -102 2 -162 -5 -171 -11 -13 -127 -16 -148
-3 -10 6 -13 53 -13 176 0 92 3 171 7 174 13 13 153 8 153 -5z m-2 -860 c14
-17 10 -264 -4 -278 -7 -7 -42 -10 -90 -8 l-79 3 -3 134 c-1 74 0 141 2 148 7
18 159 18 174 1z m4112 -133 l0 -146 -92 3 -93 3 -3 129 c-1 72 0 136 2 143 4
9 31 13 96 13 l90 0 0 -145z"/>
</g>
</svg>
